<?xml version="1.0" encoding="utf-8"?>
<!-- Generator: Adobe Illustrator 19.0.0, SVG Export Plug-In . SVG Version: 6.00 Build 0)  -->
<svg version="1.1" id="layer" xmlns="http://www.w3.org/2000/svg" xmlns:xlink="http://www.w3.org/1999/xlink" x="0px" y="0px"
	 viewBox="-153 -46 652 652" style="enable-background:new -153 -46 652 652;" xml:space="preserve">
<style type="text/css">
	.st0{fill:#FFF;}
</style>
<title>betsson_logo_white</title>
<desc>Created with Sketch.</desc>
<path class="st0" d="M-50.2,292.6c0,13.1-10.2,26.3-29.7,26.3c-11.2,0-23.1-7.2-30-14.5c-0.2-2.5-0.2-23.9,0-26.7
	c6.1-6.3,15.1-13.3,30.2-13.3C-65.4,264.5-50.2,271.8-50.2,292.6 M-78.9,251.4c-14.6,0-22.8,4.6-30.9,10.5v-31.4
	c0-2.9-2.4-5.3-5.3-5.3h-9.5v89.1l-1.4,15.5h6.6h2.2c3.9,0,4.8-2.7,5.3-5.1l1.2-4.7c8.9,7.1,16.8,12,33.2,12
	c31,0,42.2-23.8,42.2-39.7C-35.5,277-44.6,251.4-78.9,251.4 M-12.5,282.4c3.7-11.9,12.9-18.2,26.8-18.2c20.2,0,26,12.8,27.6,18.2
	H-12.5L-12.5,282.4z M13.3,251.1c-24.1,0-41.6,16.8-41.6,40c0,23.6,18.1,40.7,43,40.7c24.1,0,32.3-8.8,39.5-16.5l2.7-2.9l-11.9-8.5
	l-1.4,1.8c-4.4,5.5-10.5,13-27.9,13c-17.7,0-27.2-11.5-29-23.2H58l0.1-2.9c0-12.1-3.6-21.9-10.7-29.1
	C39.5,255.5,27.4,251.1,13.3,251.1L13.3,251.1z M102.8,319.1c-11,0-13.2-3.7-13.2-10.1v-42.3h29V259c0-2.9-2.4-5.3-5.3-5.3H89.5
	v-18.9c0-2.9-2.4-5.2-5.3-5.2h-9.5v24.2H59.3v13.1h15.5v43.3c0,6,0,22,25.6,22c4.7,0,10.5-0.8,18.7-2.1l1.5-0.2v-13.3l-3.1,0.6
	C111.9,318.3,107.8,319.1,102.8,319.1 M169.1,283.8c-12.4-1.5-23.1-2.7-23.1-9.4c0-8.8,12-10.1,19.2-10.1c12.4,0,21.8,4.1,28.3,12.4
	l1.2,1.5l10.2-9.3l-0.9-1.2c-2.9-4.1-11.7-16.5-38.6-16.5c-16.4,0-34,6.3-34,23.9c0,18,19.2,20.3,36.1,22.4
	c13.1,1.6,24.5,3,24.5,10.8c0,7.9-11.4,10.6-21.1,10.6c-13.3,0-23.9-4.9-31.6-14.7l-1.2-1.5l-11,10l1.1,1.3
	c10.5,12.2,23.7,17.9,41.7,17.9c23.4,0,36.9-8.9,36.9-24.5C206.7,288.3,186.7,285.9,169.1,283.8 M255.8,283.8
	c-12.4-1.5-23.1-2.7-23.1-9.4c0-8.8,12-10.1,19.2-10.1c12.4,0,21.8,4.1,28.3,12.4l1.2,1.5l10.2-9.3l-0.9-1.2
	c-2.9-4.1-11.7-16.5-38.6-16.5c-16.4,0-34,6.3-34,23.9c0,18,19.2,20.3,36.1,22.4c13.1,1.6,24.5,3,24.5,10.8
	c0,7.9-11.4,10.6-21.1,10.6c-13.3,0-23.9-4.9-31.6-14.7l-1.2-1.5l-11,10l1.1,1.3c10.5,12.2,23.7,17.9,41.7,17.9
	c23.4,0,36.9-8.9,36.9-24.5C293.3,288.3,273.4,285.9,255.8,283.8 M373.2,291.7c0,16.7-11,27.2-28.9,27.2c-17.7,0-29-10.7-29-27.2
	c0-13.2,9.1-27.3,29-27.3S373.2,278,373.2,291.7 M344.3,251.3c-25.4,0-43.8,16.4-43.8,39c0,25.7,16.8,41.7,43.8,41.7
	c27,0,43.7-16,43.7-41.7C388,267.7,369.7,251.3,344.3,251.3 M442.1,251.3c-10.1,0-19.6,3.6-28.9,10.9v-3.4c0-2.9-2.4-5.3-5.3-5.3
	h-9.5v76.2h14.8v-51.8c5-5.2,15-13.6,27.6-13.6c6.4,0,11.1,1.6,14.2,4.7c2.9,3,4.3,7.4,4.2,13.2v47.6H474V280
	C473.9,255,454,251.3,442.1,251.3"/>
</svg>
